<svg width="24" height="24" viewBox="0 0 24 24" fill="none" xmlns="http://www.w3.org/2000/svg">
<path d="M15 18H10" stroke="#8B8B94" stroke-width="1.96457" stroke-linecap="round" stroke-linejoin="round"/>
<path d="M18 14H10" stroke="#8B8B94" stroke-width="1.96457" stroke-linecap="round" stroke-linejoin="round"/>
<path d="M4 21.9999H20C20.5304 21.9999 21.0391 21.7892 21.4142 21.4142C21.7893 21.0391 22 20.5304 22 19.9999V3.99994C22 3.46951 21.7893 2.9608 21.4142 2.58573C21.0391 2.21065 20.5304 1.99994 20 1.99994H8C7.46957 1.99994 6.96086 2.21065 6.58579 2.58573C6.21071 2.9608 6 3.46951 6 3.99994V19.9999C6 20.5304 5.78929 21.0391 5.41421 21.4142C5.03914 21.7892 4.53043 21.9999 4 21.9999ZM4 21.9999C3.46957 21.9999 2.96086 21.7892 2.58579 21.4142C2.21071 21.0391 2 20.5304 2 19.9999V10.9999C2 10.4695 2.21071 9.9608 2.58579 9.58573C2.96086 9.21065 3.46957 8.99994 4 8.99994H6" stroke="#8B8B94" stroke-width="1.96457" stroke-linecap="round" stroke-linejoin="round"/>
<path d="M17 5.99994H11C10.4477 5.99994 10 6.44765 10 6.99994V8.99994C10 9.55222 10.4477 9.99994 11 9.99994H17C17.5523 9.99994 18 9.55222 18 8.99994V6.99994C18 6.44765 17.5523 5.99994 17 5.99994Z" stroke="#8B8B94" stroke-width="1.96457" stroke-linecap="round" stroke-linejoin="round"/>
</svg>
