<svg width="24" height="24" viewBox="0 0 24 24" fill="none" xmlns="http://www.w3.org/2000/svg">
<path d="M11.5619 3.26605C11.6051 3.18765 11.6685 3.12228 11.7456 3.07675C11.8226 3.03122 11.9104 3.0072 11.9999 3.0072C12.0894 3.0072 12.1773 3.03122 12.2543 3.07675C12.3314 3.12228 12.3948 3.18765 12.4379 3.26605L15.3899 8.87005C15.4603 8.99981 15.5586 9.11238 15.6776 9.19967C15.7967 9.28695 15.9336 9.3468 16.0785 9.37491C16.2235 9.40301 16.3728 9.39868 16.5159 9.36222C16.6589 9.32577 16.7921 9.25809 16.9059 9.16405L21.1829 5.50005C21.265 5.43327 21.3662 5.39426 21.4719 5.38865C21.5776 5.38303 21.6823 5.41109 21.771 5.46879C21.8598 5.52649 21.9279 5.61086 21.9656 5.70974C22.0033 5.80862 22.0087 5.91692 21.9809 6.01905L19.1469 16.265C19.0891 16.4747 18.9645 16.6598 18.7919 16.7923C18.6194 16.9247 18.4084 16.9973 18.1909 16.999H5.80994C5.59227 16.9975 5.38105 16.925 5.20833 16.7926C5.03561 16.6601 4.91083 16.4749 4.85294 16.265L2.01994 6.02005C1.99219 5.91792 1.99756 5.80962 2.03528 5.71074C2.073 5.61186 2.14112 5.52749 2.22984 5.46979C2.31855 5.41209 2.42329 5.38403 2.52898 5.38965C2.63466 5.39526 2.73583 5.43427 2.81794 5.50105L7.09394 9.16505C7.20773 9.25909 7.34094 9.32677 7.484 9.36322C7.62705 9.39968 7.77641 9.40401 7.92134 9.37591C8.06626 9.3478 8.20317 9.28795 8.32223 9.20067C8.44129 9.11338 8.53954 9.00081 8.60994 8.87105L11.5619 3.26605Z" stroke="#8B8B94" stroke-width="1.96457" stroke-linecap="round" stroke-linejoin="round"/>
<path d="M5 21H19" stroke="#8B8B94" stroke-width="1.96457" stroke-linecap="round" stroke-linejoin="round"/>
</svg>
