<svg width="22" height="22" viewBox="0 0 22 22" fill="none" xmlns="http://www.w3.org/2000/svg">
<path d="M9.41228 19.25C9.5732 19.5287 9.80463 19.7601 10.0833 19.921C10.362 20.0819 10.6781 20.1666 10.9999 20.1666C11.3218 20.1666 11.6379 20.0819 11.9166 19.921C12.1953 19.7601 12.4267 19.5287 12.5876 19.25" stroke="white" stroke-width="1.78563" stroke-linecap="round" stroke-linejoin="round"/>
<path d="M2.99015 14.0488C2.8704 14.1801 2.79138 14.3433 2.76269 14.5186C2.73399 14.694 2.75688 14.8739 2.82855 15.0364C2.90022 15.199 3.01759 15.3373 3.16639 15.4344C3.31518 15.5314 3.48898 15.5832 3.66665 15.5833H18.3333C18.511 15.5834 18.6848 15.5318 18.8337 15.4349C18.9826 15.338 19.1001 15.1999 19.172 15.0375C19.2438 14.875 19.2669 14.6952 19.2385 14.5198C19.21 14.3445 19.1312 14.1811 19.0116 14.0498C17.7925 12.793 16.5 11.4574 16.5 7.33334C16.5 5.87464 15.9205 4.4757 14.8891 3.44425C13.8576 2.4128 12.4587 1.83334 11 1.83334C9.54129 1.83334 8.14235 2.4128 7.1109 3.44425C6.07945 4.4757 5.49998 5.87464 5.49998 7.33334C5.49998 11.4574 4.20657 12.793 2.99015 14.0488Z" stroke="white" stroke-width="1.78563" stroke-linecap="round" stroke-linejoin="round"/>
</svg>
