<svg width="20" height="20" viewBox="0 0 20 20" fill="none" xmlns="http://www.w3.org/2000/svg">
<path d="M17.5 9.99999C17.96 9.99999 18.3375 9.62583 18.2917 9.16833C18.0995 7.25514 17.2517 5.46725 15.8919 4.10777C14.5322 2.74829 12.7441 1.90087 10.8308 1.70917C10.3725 1.66334 9.99918 2.04084 9.99918 2.50084V9.1675C9.99918 9.38851 10.087 9.60047 10.2433 9.75675C10.3995 9.91303 10.6115 10.0008 10.8325 10.0008L17.5 9.99999Z" stroke="#0066FF" stroke-width="1.60796" stroke-linecap="round" stroke-linejoin="round"/>
<path d="M17.6749 13.2417C17.1447 14.4954 16.3155 15.6002 15.2598 16.4594C14.204 17.3186 12.9539 17.9062 11.6186 18.1706C10.2833 18.4351 8.90358 18.3684 7.60002 17.9765C6.29646 17.5845 5.10875 16.8792 4.14075 15.9222C3.17275 14.9652 2.45391 13.7856 2.0471 12.4866C1.64028 11.1876 1.55787 9.80873 1.80707 8.47052C2.05626 7.13231 2.62948 5.87552 3.47661 4.81003C4.32373 3.74453 5.41897 2.90277 6.66656 2.35834" stroke="#0066FF" stroke-width="1.60796" stroke-linecap="round" stroke-linejoin="round"/>
</svg>
