<svg width="20" height="20" viewBox="0 0 20 20" fill="none" xmlns="http://www.w3.org/2000/svg">
<path d="M18.3334 10H16.2667C15.9025 9.99922 15.5481 10.1178 15.2577 10.3375C14.9672 10.5572 14.7567 10.866 14.6584 11.2167L12.7001 18.1833C12.6874 18.2266 12.6611 18.2646 12.6251 18.2917C12.589 18.3187 12.5451 18.3333 12.5001 18.3333C12.455 18.3333 12.4111 18.3187 12.3751 18.2917C12.339 18.2646 12.3127 18.2266 12.3001 18.1833L7.70007 1.81668C7.68744 1.7734 7.66113 1.73539 7.62507 1.70834C7.589 1.6813 7.54514 1.66668 7.50007 1.66668C7.45499 1.66668 7.41113 1.6813 7.37507 1.70834C7.33901 1.73539 7.31269 1.7734 7.30007 1.81668L5.34174 8.78334C5.24379 9.13263 5.03455 9.44043 4.74579 9.66001C4.45703 9.87959 4.1045 9.99896 3.74174 10H1.66674" stroke="#0066FF" stroke-width="1.60796" stroke-linecap="round" stroke-linejoin="round"/>
</svg>
