<svg width="20" height="20" viewBox="0 0 20 20" fill="none" xmlns="http://www.w3.org/2000/svg">
<path d="M3.33331 11.6667C3.17562 11.6672 3.021 11.623 2.88744 11.5392C2.75388 11.4553 2.64684 11.3353 2.57877 11.1931C2.5107 11.0508 2.48439 10.8922 2.5029 10.7356C2.5214 10.579 2.58396 10.4308 2.68331 10.3084L10.9333 1.80836C10.9952 1.73693 11.0795 1.68866 11.1725 1.67147C11.2654 1.65429 11.3614 1.66921 11.4447 1.71378C11.5281 1.75836 11.5938 1.82994 11.6311 1.91679C11.6684 2.00363 11.675 2.10057 11.65 2.1917L10.05 7.20836C10.0028 7.33463 9.98695 7.47046 10.0038 7.60419C10.0206 7.73793 10.0697 7.86559 10.1467 7.97621C10.2237 8.08683 10.3264 8.17712 10.446 8.23932C10.5656 8.30153 10.6985 8.33379 10.8333 8.33336H16.6666C16.8243 8.33282 16.9789 8.37704 17.1125 8.46087C17.2461 8.54471 17.3531 8.66473 17.4212 8.80697C17.4892 8.94922 17.5155 9.10787 17.497 9.26447C17.4785 9.42108 17.416 9.56922 17.3166 9.69169L9.06664 18.1917C9.00475 18.2631 8.92042 18.3114 8.82749 18.3286C8.73455 18.3458 8.63853 18.3308 8.5552 18.2863C8.47186 18.2417 8.40615 18.1701 8.36886 18.0833C8.33157 17.9964 8.32491 17.8995 8.34997 17.8083L9.94997 12.7917C9.99715 12.6654 10.013 12.5296 9.99614 12.3958C9.97929 12.2621 9.93025 12.1344 9.85323 12.0238C9.7762 11.9132 9.67349 11.8229 9.55391 11.7607C9.43432 11.6985 9.30143 11.6662 9.16664 11.6667H3.33331Z" stroke="#0066FF" stroke-width="1.60796" stroke-linecap="round" stroke-linejoin="round"/>
</svg>
