<svg width="24" height="24" viewBox="0 0 24 24" fill="none" xmlns="http://www.w3.org/2000/svg">
<path d="M11.5249 2.295C11.5687 2.20646 11.6364 2.13193 11.7204 2.07983C11.8043 2.02772 11.9011 2.00011 11.9999 2.00011C12.0987 2.00011 12.1955 2.02772 12.2795 2.07983C12.3634 2.13193 12.4311 2.20646 12.4749 2.295L14.7849 6.974C14.9371 7.28197 15.1617 7.54841 15.4395 7.75045C15.7173 7.9525 16.04 8.08411 16.3799 8.134L21.5459 8.89C21.6438 8.90418 21.7358 8.94547 21.8114 9.0092C21.887 9.07293 21.9433 9.15655 21.9739 9.25061C22.0045 9.34467 22.0082 9.44541 21.9845 9.54144C21.9608 9.63747 21.9107 9.72495 21.8399 9.794L18.1039 13.432C17.8575 13.6721 17.6732 13.9685 17.5667 14.2956C17.4603 14.6228 17.435 14.9709 17.4929 15.31L18.3749 20.45C18.3922 20.5478 18.3816 20.6486 18.3444 20.7407C18.3072 20.8328 18.2448 20.9126 18.1644 20.971C18.0841 21.0294 17.9889 21.064 17.8898 21.0709C17.7907 21.0778 17.6916 21.0567 17.6039 21.01L12.9859 18.582C12.6816 18.4222 12.3431 18.3388 11.9994 18.3388C11.6557 18.3388 11.3172 18.4222 11.0129 18.582L6.39591 21.01C6.30824 21.0564 6.2093 21.0773 6.11036 21.0703C6.01141 21.0632 5.91643 21.0286 5.8362 20.9702C5.75598 20.9119 5.69374 20.8322 5.65656 20.7402C5.61939 20.6483 5.60877 20.5477 5.62591 20.45L6.50691 15.311C6.5651 14.9717 6.53989 14.6234 6.43344 14.296C6.327 13.9687 6.14252 13.6722 5.89591 13.432L2.15991 9.795C2.0885 9.72603 2.0379 9.6384 2.01387 9.54207C1.98984 9.44575 1.99334 9.34462 2.02399 9.25019C2.05463 9.15576 2.11117 9.07184 2.18718 9.00798C2.26319 8.94413 2.35561 8.9029 2.45391 8.889L7.61891 8.134C7.95916 8.0845 8.2823 7.95306 8.56049 7.75099C8.83869 7.54892 9.06361 7.28227 9.21591 6.974L11.5249 2.295Z" stroke="#0066FF" stroke-width="2.14352" stroke-linecap="round" stroke-linejoin="round"/>
</svg>
