<svg width="24" height="24" viewBox="0 0 24 24" fill="none" xmlns="http://www.w3.org/2000/svg">
<g clip-path="url(#clip0_14_1007)">
<path d="M20 12.9999C20 17.9999 16.5 20.4999 12.34 21.9499C12.1221 22.0238 11.8855 22.0202 11.67 21.9399C7.49999 20.4999 3.99999 17.9999 3.99999 12.9999V5.99995C3.99999 5.73474 4.10535 5.48038 4.29289 5.29285C4.48042 5.10531 4.73478 4.99996 4.99999 4.99996C6.99999 4.99996 9.49999 3.79996 11.24 2.27996C11.4518 2.09896 11.7213 1.99951 12 1.99951C12.2786 1.99951 12.5481 2.09896 12.76 2.27996C14.51 3.80996 17 4.99996 19 4.99996C19.2652 4.99996 19.5195 5.10531 19.7071 5.29285C19.8946 5.48038 20 5.73474 20 5.99995V12.9999Z" stroke="#D9B46F" stroke-width="2.14352" stroke-linecap="round" stroke-linejoin="round"/>
<path d="M9.00005 12L11 14L15 10" stroke="#D9B46F" stroke-width="2.14352" stroke-linecap="round" stroke-linejoin="round"/>
</g>
<defs>
<clipPath id="clip0_14_1007">
<rect width="24" height="24" fill="white"/>
</clipPath>
</defs>
</svg>
