<svg width="26" height="26" viewBox="0 0 26 26" fill="none" xmlns="http://www.w3.org/2000/svg">
<path d="M12.5255 3.538C12.5723 3.45307 12.641 3.38225 12.7244 3.33293C12.8079 3.2836 12.9031 3.25758 13 3.25758C13.097 3.25758 13.1921 3.2836 13.2756 3.33293C13.3591 3.38225 13.4278 3.45307 13.4745 3.538L16.6725 9.609C16.7488 9.74957 16.8552 9.87152 16.9842 9.96609C17.1132 10.0606 17.2615 10.1255 17.4185 10.1559C17.5755 10.1864 17.7373 10.1817 17.8923 10.1422C18.0473 10.1027 18.1916 10.0294 18.3149 9.9275L22.9483 5.95817C23.0372 5.88582 23.1468 5.84357 23.2613 5.83748C23.3758 5.8314 23.4893 5.8618 23.5854 5.92431C23.6815 5.98682 23.7553 6.07821 23.7962 6.18533C23.837 6.29245 23.8428 6.40978 23.8128 6.52042L20.7426 17.6202C20.6799 17.8474 20.5449 18.0479 20.358 18.1914C20.1711 18.3349 19.9426 18.4135 19.7069 18.4154H6.29419C6.05839 18.4138 5.82956 18.3352 5.64245 18.1917C5.45534 18.0482 5.32016 17.8476 5.25744 17.6202L2.18836 6.5215C2.15829 6.41086 2.16411 6.29354 2.20498 6.18641C2.24584 6.07929 2.31964 5.9879 2.41575 5.92539C2.51186 5.86288 2.62533 5.83248 2.73982 5.83857C2.85431 5.84465 2.96391 5.88691 3.05286 5.95925L7.68519 9.92858C7.80847 10.0305 7.95278 10.1038 8.10776 10.1433C8.26274 10.1828 8.42453 10.1875 8.58154 10.157C8.73854 10.1266 8.88686 10.0617 9.01584 9.96717C9.14482 9.87261 9.25126 9.75066 9.32752 9.61008L12.5255 3.538Z" stroke="black" stroke-width="2.14352" stroke-linecap="round" stroke-linejoin="round"/>
<path d="M5.41659 22.75H20.5833" stroke="black" stroke-width="2.14352" stroke-linecap="round" stroke-linejoin="round"/>
</svg>
