<svg width="24" height="24" viewBox="0 0 24 24" fill="none" xmlns="http://www.w3.org/2000/svg">
<path d="M12 20.94C13.5 20.94 14.75 22 16 22C19 22 22 14 22 9.78003C21.9659 8.48475 21.4212 7.25545 20.4846 6.36007C19.548 5.46469 18.2955 4.97582 17 5.00002C14.78 5.00002 13 6.44002 12 7.00002C11 6.44002 9.21998 5.00002 6.99998 5.00002C5.70373 4.97318 4.44968 5.46117 3.51251 6.35711C2.57534 7.25304 2.03145 8.48388 1.99998 9.78003C1.99998 14 4.99998 22 7.99998 22C9.24998 22 10.5 20.94 12 20.94Z" stroke="white" stroke-width="1.99953" stroke-linecap="round" stroke-linejoin="round"/>
<path d="M9.9999 1.99998C10.9999 2.49998 11.9999 3.99998 11.9999 6.99998" stroke="white" stroke-width="1.99953" stroke-linecap="round" stroke-linejoin="round"/>
</svg>
